<svg xmlns="http://www.w3.org/2000/svg" viewBox="0 0 96 96" id="brick-wall"><g data-name="brick wall"><path fill="#8c5530" d="M85,45H49a2,2,0,0,0-2,2v7H40a2,2,0,0,0-2,2v9H22a2,2,0,0,0-2,2V87a2,2,0,0,0,2,2H85a2,2,0,0,0,2-2V47A2,2,0,0,0,85,45Z"></path><path fill="#fb9628" d="M76.83,10.62a8.72,8.72,0,1,0,8.71,8.71A8.72,8.72,0,0,0,76.83,10.62Z"></path><path fill="#fdba43" d="M81.54,19.33a4.71,4.71,0,1,1-4.71-4.71A4.72,4.72,0,0,1,81.54,19.33Z"></path><path fill="#fb9628" d="M76.83 9.72a2 2 0 0 1-2-2V3.46a2 2 0 1 1 4 0V7.72A2 2 0 0 1 76.83 9.72zM67.2 12.53l-3-3A2 2 0 1 1 67 6.69l3 3a2 2 0 1 1-2.83 2.83zM65.21 21.33H61a2 2 0 1 1 0-4h4.25a2 2 0 0 1 0 4zM64.19 32a2 2 0 0 1 0-2.83l3-3A2 2 0 1 1 70 29l-3 3A2 2 0 0 1 64.19 32zM76.83 37.21a2 2 0 0 1-2-2V31a2 2 0 0 1 4 0v4.26A2 2 0 0 1 76.83 37.21zM86.64 32l-3-3a2 2 0 1 1 2.83-2.83l3 3A2 2 0 1 1 86.64 32zM92.71 21.33H88.45a2 2 0 0 1 0-4h4.26a2 2 0 0 1 0 4zM83.63 12.53a2 2 0 0 1 0-2.83l3-3a2 2 0 1 1 2.83 2.83l-3 3A2 2 0 0 1 83.63 12.53z"></path><rect width="10" height="5" x="51" y="49" fill="#7d5338"></rect><path fill="#ab7953" d="M61,49v3H57a3,3,0,0,1-3-3h7Z"></path><rect width="11" height="5" x="65" y="49" fill="#ab7953"></rect><path fill="#ebaf74" d="M76,49v3H71a3,3,0,0,1-3-3h8Z"></path><rect width="3" height="5" x="80" y="49" fill="#7d5338"></rect><rect width="8" height="7" x="75" y="58" fill="#ab7953"></rect><path fill="#ebaf74" d="M83,58v5h0a5,5,0,0,1-5-5h5Z"></path><rect width="3" height="6" x="80" y="69" fill="#7d5338"></rect><rect width="8" height="6" x="75" y="79" fill="#ab7953"></rect><rect width="14" height="6" x="57" y="79" fill="#7d5338"></rect><rect width="10" height="6" x="66" y="69" fill="#7d5338"></rect><path fill="#ab7953" d="M76,69v4H73a4,4,0,0,1-4-4h7Z"></path><rect width="12" height="6" x="50" y="69" fill="#ab7953"></rect><path fill="#ebaf74" d="M62,69v4H57a4,4,0,0,1-4-4h9Z"></path><rect width="14" height="7" x="57" y="58" fill="#7d5338"></rect><path fill="#ab7953" d="M71,58v5H65a5,5,0,0,1-5-5H71Z"></path><rect width="11" height="7" x="42" y="58" fill="#ab7953"></rect><path fill="#ebaf74" d="M53,58v5H50a5,5,0,0,1-5-5h8Z"></path><rect width="22" height="6" x="24" y="69" fill="#7d5338"></rect><rect width="12" height="6" x="24" y="79" fill="#7d5338"></rect><rect width="13" height="6" x="40" y="79" fill="#ab7953"></rect><path fill="#ebaf74" d="M83,79v4H82a4,4,0,0,1-4-4h5Z"></path><path fill="#ab7953" d="M71 79v4H64a4 4 0 0 1-4-4H71zM46 69v4H31a4 4 0 0 1-4-4H46zM36 79v4H31a4 4 0 0 1-4-4h9z"></path><path fill="#ebaf74" d="M53,79v4H47a4,4,0,0,1-4-4H53Z"></path><path fill="#e0d2d6" d="M34.59,62.23a4.57,4.57,0,0,1-4.93,1L18.14,58.74a4.57,4.57,0,0,1-2.83-3.34l-.06-.33a4.6,4.6,0,0,1,1.31-3.86l7-7a4.6,4.6,0,0,1,7.53,1.58L35.62,57.3A4.56,4.56,0,0,1,34.59,62.23Z"></path><path fill="#eaead9" d="M32,59.68a3,3,0,0,1-3.26.69l-13.52-5.3a4.6,4.6,0,0,1,1.31-3.86l7-7a4.55,4.55,0,0,1,3.86-1.3l5.29,13.49A3,3,0,0,1,32,59.68Z"></path><path fill="#a89ea1" d="M23.88,54.35l-6.61-6.61a2,2,0,0,1-.59-1.42V40.78l-2.09-2.1a2,2,0,1,1,2.82-2.83l2.69,2.68A2,2,0,0,1,20.68,40V45.5l6,6a2,2,0,1,1-2.83,2.83Z"></path><path fill="#fb9628" d="M19,35a5.52,5.52,0,0,1-1.63,3.66,5.61,5.61,0,0,1-7.95,0l-3.8-3.8a5.63,5.63,0,0,1,0-8A4,4,0,0,1,6,26.59a5.63,5.63,0,0,1,7.57.34l3.8,3.8A5.55,5.55,0,0,1,19,35Z"></path><path fill="#fdba43" d="M19,35a5.61,5.61,0,0,1-7.58-.34l-3.8-3.8A5.55,5.55,0,0,1,6,26.59a5.63,5.63,0,0,1,7.57.34l3.8,3.8A5.55,5.55,0,0,1,19,35Z"></path><path fill="#8c5530" d="M11 89H5a2 2 0 0 1 0-4h6a2 2 0 0 1 0 4zM90 89H18a2 2 0 0 1 0-4H90a2 2 0 0 1 0 4z"></path></g></svg>