<svg xmlns="http://www.w3.org/2000/svg" enable-background="new 0 0 64 64" viewBox="0 0 64 64" id="carpet"><path fill="#34495c" d="M49.38,36.39c-0.65-1.25-0.98-2.73-0.98-4.4v-3.23H15.61v3.23c0,1.68-0.34,3.15-0.99,4.4
		c-0.4,0.75-0.88,1.42-1.43,1.99L8.03,64h47.95l-5.17-25.61C50.24,37.81,49.78,37.14,49.38,36.39z"></path><path fill="#00aeef" d="M60.17 2.68c0-1.48-1.2-2.68-2.68-2.68H6.51C5.04 0 3.83 1.2 3.83 2.68c0 1.48 1.2 2.68 2.68 2.68h50.98C58.96 5.36 60.17 4.15 60.17 2.68zM7.96 7.1v11.68h6.1c.05-.07.12-.13.19-.18 4.17-2.92 6.4-6.7 6.79-11.51H7.96zM7.96 39.22c2.41-.49 4.1-1.69 5.11-3.64.53-.99.79-2.2.79-3.59V20.53H7.96V39.22zM3.53 19.66c0 .49.39.88.88.88h1.81v-1.75H4.4C3.92 18.78 3.53 19.17 3.53 19.66zM16.85 18.78c-.39.34-.8.66-1.23.98v.77h1.72c.47 0 .86-.39.86-.88 0-.49-.39-.88-.86-.88H16.85zM50.14 31.99c0 1.38.26 2.59.79 3.59 1.02 1.95 2.7 3.15 5.11 3.64V20.53h-5.91V31.99zM49.77 18.6c.07.05.14.11.19.18h6.08V7.1H42.97C43.36 11.91 45.59 15.68 49.77 18.6zM48.4 20.53v-.77c-.42-.32-.83-.63-1.22-.98h-.5c-.49 0-.88.39-.88.88 0 .49.39.88.88.88H48.4zM59.6 18.78h-1.8v1.75h1.8c.49 0 .88-.39.88-.88C60.47 19.17 60.08 18.78 59.6 18.78z"></path></svg>