<svg xmlns="http://www.w3.org/2000/svg" viewBox="0 0 24 24" id="door"><g data-name="16. Door"><rect width="16" height="22" x="4" fill="#61c5fa"></rect><rect width="20" height="2" x="2" y="22" fill="#6dedd4"></rect><path fill="#fff" d="M17,8H7V7A5,5,0,0,1,17,7Z"></path><path fill="#6dedd4" d="M16.53,4.89,13.41,8H10.59L7.47,4.89A4.89,4.89,0,0,1,8.68,3.26L11,5.59V2.1a5.18,5.18,0,0,1,2,0V5.59l2.32-2.33A4.81,4.81,0,0,1,16.53,4.89Z"></path><rect width="4" height="10" x="7" y="10" fill="#468ff1"></rect><rect width="4" height="10" x="13" y="10" fill="#468ff1"></rect><path fill="#468ff1" d="M14,8H10a2,2,0,0,1,4,0Z"></path></g></svg>