<svg xmlns="http://www.w3.org/2000/svg" viewBox="0 0 64 64" id="lock-repair"><g data-name="Layer 15"><circle cx="23" cy="18" r="16" fill="#929fa4"></circle><path fill="#a8b2b6" d="M23,2A15.994,15.994,0,0,0,10.734,28.266,15.994,15.994,0,0,0,33.266,5.734,15.931,15.931,0,0,0,23,2Z"></path><path fill="#e7b532" d="M51,62h0a6,6,0,0,1-6-6V46l1-2V41l-1-2V35H57v4l-1,2v3l1,2V56A6,6,0,0,1,51,62Z"></path><path fill="#f9d157" d="M48,41v3l-1,2V56a6,6,0,0,0,5,5.91A6,6,0,0,0,57,56V46l-1-2V41l1-2V35H47v4Z"></path><polyline fill="#929fa4" points="49 35 49 7 51 2 53 7 53 35"></polyline><circle cx="23" cy="18" r="12" fill="#566870"></circle><path fill="#76858b" d="M24,7a11.985,11.985,0,0,0-8.961,19.961A11.985,11.985,0,0,0,31.961,10.039,11.936,11.936,0,0,0,24,7Z"></path><path fill="#bfcacd" d="M21,17.236V22a2,2,0,0,0,2,2h0a2,2,0,0,0,2-2V17.236"></path><path fill="#76858b" d="M28,57a5,5,0,1,1-7-4.58V47H19V43h2V40l4-2V52.42A5,5,0,0,1,28,57Z"></path><path fill="#a8b2b6" d="M25,52.42V38l-2,1V62a5,5,0,0,0,2-9.58Z"></path><circle cx="23" cy="15" r="3" fill="#334047"></circle><path fill="#566870" d="M23,12a2.965,2.965,0,0,0-1.554.446A2.965,2.965,0,0,0,21,14a3,3,0,0,0,3,3,2.965,2.965,0,0,0,1.554-.446A2.965,2.965,0,0,0,26,15,3,3,0,0,0,23,12Z"></path><path fill="#334047" d="M23,58a2,2,0,0,0-2,2v1.577a4.94,4.94,0,0,0,4,0V60A2,2,0,0,0,23,58Z"></path><path fill="#e7b532" d="M48 49V61.191a5.961 5.961 0 002 .719V49zM52 49V61.91a5.961 5.961 0 002-.719V49z"></path><path fill="#76858b" d="M51,31a2,2,0,0,0,2,2V7L51,2Z"></path><path d="M53.929 6.628l-2-5a1 1 0 00-1.858 0l-2 5A1.012 1.012 0 0048 7V34H45a1 1 0 00-1 1v4a1 1 0 00.1.447l.9 1.789v2.528l-.9 1.789A1 1 0 0044 46V56a7 7 0 0014 0V46a1 1 0 00-.1-.447L57 43.764V41.236l.9-1.789A1 1 0 0058 39V35a1 1 0 00-1-1H54V7A1.012 1.012 0 0053.929 6.628zM50 7.192l1-2.5 1 2.5V34H50zm6 31.572l-.9 1.789A1 1 0 0055 41v3a1 1 0 00.1.447l.9 1.789V56a4.977 4.977 0 01-2 3.974V49H52V60.9a5 5 0 01-2 0V49H48V59.974A4.977 4.977 0 0146 56V46.236l.9-1.789A1 1 0 0047 44V41a1 1 0 00-.1-.447L46 38.764V36H56zM23 31A13 13 0 1010 18 13.015 13.015 0 0023 31zM23 7A11 11 0 1112 18 11.013 11.013 0 0123 7z"></path><path d="M20,22a3,3,0,0,0,6,0V17.618a4,4,0,1,0-6,0Zm3,1a1,1,0,0,1-1-1V18.858a3.592,3.592,0,0,0,2,0V22A1,1,0,0,1,23,23Zm0-10a2,2,0,1,1-2,2A2,2,0,0,1,23,13Z"></path><path d="M6 18A17 17 0 1023 1 17.019 17.019 0 006 18zM23 3A15 15 0 118 18 15.017 15.017 0 0123 3zM17 57a6 6 0 109-5.188V38a1 1 0 00-1.447-.9l-4 2A1 1 0 0020 40v2H19a1 1 0 00-1 1v4a1 1 0 001 1h1v3.812A6 6 0 0017 57zm5 3.858V60a1 1 0 012 0v.858a3.592 3.592 0 01-2 0zm3.966-1.2a2.984 2.984 0 00-5.932 0 4 4 0 115.932 0zM21 46H20V44h1a1 1 0 001-1V40.618l2-1V51.09a5.6 5.6 0 00-2 0V47A1 1 0 0021 46z"></path></g></svg>