<svg xmlns="http://www.w3.org/2000/svg" enable-background="new 0 0 512 512" viewBox="0 0 512 512" id="piggy-bank"><path fill="#fbb381" d="M507.334,265.116l-17.92,58.759c-2.04,6.24-7.84,10.56-14.36,10.56h-16.719c-6.92,20.28-18.4,38.399-33.199,53.199c-15.08,15.08-33.599,26.719-54.318,33.519v30.4c0,5.479-4.44,9.92-9.921,9.92h-48.919c-5.479,0-9.92-4.44-9.92-9.92v-23.32h-75.038v23.32c0,5.479-4.439,9.92-9.92,9.92h-50.879c-5.479,0-9.92-4.44-9.92-9.92v-32.28c-52.359-19.799-89.558-70.398-89.558-129.677c0-38.319,15.559-72.998,40.599-98.078c25.08-25.12,59.799-40.599,98.078-40.599h127.117c13.159-22.56,32.959-42.199,61.119-51.359c-6.64,23.319-12.12,44.119-11.64,63.558l0.12,0.04c35.68,15.72,63.798,45.599,76.319,82.638h34.519C503.094,245.796,510.294,255.516,507.334,265.116z"></path><path fill="#fcccab" d="M381.537,104.4c-19.719,110.958-116.678,195.196-233.315,195.196c-28.599,0-56.039-5.08-81.398-14.32c1.119-36.599,16.439-69.638,40.519-93.758c25.08-25.12,59.799-40.599,98.078-40.599h127.117C343.738,131.759,359.696,114.68,381.537,104.4z"></path><path fill="#fa9957" d="M507.334,265.076l-17.921,58.759c-2,6.279-7.8,10.559-14.359,10.559h-16.719c-6.921,20.32-18.4,38.399-33.199,53.239c-15.08,15.08-33.6,26.679-54.319,33.479v30.4c0,5.519-4.44,9.96-9.92,9.96h-48.919c-5.48,0-9.92-4.44-9.92-9.96v-23.28H227.06v23.28c0,5.519-4.44,9.96-9.92,9.96h-50.92c-5.479,0-9.92-4.44-9.92-9.96v-32.24c-34.319-13-62.158-39.278-77.238-72.558c36.399,21.639,78.878,34.039,124.278,34.039c110.597,0,204.035-73.719,233.795-174.677c9.159,11.841,16.399,25.2,21.319,39.68h34.52C503.094,245.757,510.293,255.476,507.334,265.076z"></path><path fill="#fddd8d" d="M314.717,128.284c0,25.556-12.298,48.187-31.271,62.405H190.41c-18.974-14.172-31.271-36.849-31.271-62.405c0-42.929,34.792-77.766,77.812-77.766C279.88,50.517,314.717,85.354,314.717,128.284z"></path><path fill="#fee8b3" d="M294.921,76.485c-12.115-7.863-26.561-12.389-42.106-12.389c-42.974,0-77.812,34.838-77.812,77.766c0,18.516,6.493,35.477,17.281,48.827h-1.828c-19.019-14.172-31.317-36.849-31.317-62.405c0-42.929,34.792-77.766,77.812-77.766C259.993,50.517,280.703,60.575,294.921,76.485z"></path><path fill="#fdd267" d="M314.717,128.329c0,25.556-12.298,48.187-31.271,62.359h-45.398c34.792-7.772,60.759-38.815,60.759-75.937c0-19.933-7.497-38.083-19.796-51.844C300.498,76.759,314.717,100.899,314.717,128.329z"></path><g><path fill="#fff" d="M411.814,225.158c0,7.361-5.944,13.304-13.303,13.304c-7.315,0-13.305-5.944-13.305-13.304c0-7.315,5.989-13.304,13.305-13.304C405.87,211.854,411.814,217.843,411.814,225.158z"></path><path fill="#333" d="M232.911,131.958v33.214c-4.569-1.137-8.654-4.109-10.937-8.633c-0.996-1.973-3.402-2.773-5.371-1.77c-1.973,0.996-2.766,3.398-1.769,5.371c3.693,7.319,10.555,11.978,18.078,13.226v4.504c0,2.211,1.789,4,4,4s4-1.789,4-4v-4.494c2.416-0.395,4.816-1.119,7.113-2.279c12.176-6.133,17.089-21.023,10.953-33.199c-3.619-7.139-10.322-11.946-18.066-13.217V91.465c4.568,1.136,8.653,4.1,10.929,8.615c0.992,1.969,3.394,2.766,5.371,1.769c1.973-0.992,2.766-3.398,1.77-5.371c-3.682-7.307-10.541-11.974-18.07-13.223v-4.499c0-2.211-1.789-4-4-4s-4,1.789-4,4v4.459c-2.419,0.393-4.818,1.151-7.121,2.307c-12.156,6.129-17.074,21.015-10.953,33.202C218.467,125.867,225.171,130.683,232.911,131.958z M251.841,141.509c2.008,3.984,2.34,8.515,0.941,12.754c-1.402,4.242-4.371,7.683-8.359,9.695c-1.142,0.574-2.32,0.973-3.512,1.267v-32.385C245.585,133.989,249.595,137.081,251.841,141.509z M229.384,92.666c1.146-0.574,2.33-0.971,3.527-1.263V123.8c-4.672-1.156-8.683-4.255-10.933-8.681C217.845,106.881,221.169,96.811,229.384,92.666z"></path><path fill="#333" d="M508.282,249.526c-3.601-4.92-9.2-7.72-15.32-7.72h-22.757c-0.046-0.001-0.084-0.026-0.131-0.026h-8.801c-12.885-35.667-40.119-65.056-75.269-81.292c0.04-18.04,5.239-37.839,11.519-59.839c0.4-1.399-0.04-2.96-1.08-3.96c-1.08-1.04-2.64-1.4-4.04-0.92c-25.439,8.28-46.879,25.919-62.159,51.159h-13.634c1.383-6.013,2.107-12.24,2.107-18.599c0-45.112-36.702-81.811-81.815-81.811c-45.085,0-81.764,36.698-81.764,81.811c0,9.084,1.487,17.892,4.268,26.19c-20.456,6.946-39.219,18.472-54.878,34.168c-8.18,8.192-15.225,17.205-21.098,26.836c-2.844,2.182-5.781,4.198-8.901,5.804c-6.92,3.519-13.96,4.64-19.919,3.159c2.4-1.84,4.6-3.96,6.52-6.319c4.6-5.6,8.16-14.64,3.199-21.8c-4.88-7.039-15.119-7.199-21.559-2.92c-5.6,3.76-9.04,10.24-8.92,16.961c0.08,4.76,1.96,9.439,5.12,13.279c-2.4,0.721-4.88,1.16-7.4,1.32c-9,0.56-18.24-2.801-24.839-9c-1.6-1.52-4.12-1.44-5.64,0.16c-1.52,1.64-1.44,4.16,0.159,5.68c8.16,7.68,19.76,11.88,30.8,11.16c4.8-0.32,9.519-1.48,13.96-3.44c1.68,0.96,3.479,1.761,5.399,2.32c2.721,0.84,5.6,1.24,8.56,1.24c5.18,0,10.634-1.311,16.016-3.713c-8.672,18.614-13.257,39.041-13.257,60.191c0,58.039,35.879,110.878,89.559,132.398v29.559c0,7.68,6.239,13.92,13.92,13.92h50.879c7.68,0,13.92-6.239,13.92-13.92v-18.415c0.001-0.035,0.021-0.065,0.021-0.102v-0.803h67.018v19.319c0,7.68,6.24,13.92,13.92,13.92h48.919c7.68,0,13.92-6.239,13.92-13.92v-18.467c0-0.018,0.01-0.031,0.01-0.049v-9.047c19.795-6.96,38.112-18.519,53.149-33.556c14.679-14.679,26.12-32.599,33.199-51.999h13.881c8.279,0,15.559-5.359,18.199-13.399l17.92-58.759C512.922,260.486,511.882,254.366,508.282,249.526z M46.692,220.206c-2.92-2.72-4.8-6.319-4.84-9.92c-0.08-3.959,2.04-7.959,5.36-10.159c1.479-1,3.399-1.52,5.279-1.52c2.12,0,4.16,0.721,5.24,2.32c2.28,3.24,0.16,8.599-2.76,12.16C52.652,215.887,49.852,218.327,46.692,220.206z M236.903,54.519c40.702,0,73.815,33.113,73.815,73.811c0,23.074-10.414,44.265-28.62,58.358h-90.342c-18.207-14.09-28.617-35.284-28.617-58.358C163.139,87.631,196.229,54.519,236.903,54.519z M503.522,263.926c0,0,0,0,0,0.04l-17.92,58.678c-1.479,4.6-5.84,7.8-10.559,7.8h-4.882c-0.03-0.001-0.056-0.018-0.087-0.018H439.93c-2.211,0-4,1.789-4,4c0,2.211,1.789,4,4,4h12.646c-6.744,17.271-17.111,33.198-30.253,46.377c-13.508,13.507-29.846,23.988-47.509,30.655v-13.736c0-2.211-1.789-4-4-4c-2.211,0-4,1.789-4,4v19.379c0,0.021-0.01,0.04-0.01,0.062v30.399c0,3.24-2.641,5.92-5.92,5.92h-48.919c-3.24,0-5.92-2.68-5.92-5.92v-18.477c0-0.014,0.008-0.025,0.008-0.039v-24.238c0-2.211-1.789-4-4-4c-2.211,0-4,1.789-4,4v15.435h-67.026v-15.435c0-2.211-1.789-4-4-4s-4,1.789-4,4v19.334c-0.001,0.035-0.021,0.065-0.021,0.102v23.319c0,3.24-2.641,5.92-5.92,5.92H166.21c-3.24,0-5.92-2.68-5.92-5.92v-18.448c0-0.024,0.014-0.044,0.014-0.068v-33.199c0-2.211-1.789-4-4-4c-2.211,0-4,1.789-4,4v13.378c-49.001-21.067-81.572-69.955-81.572-123.619c0-35.959,14-69.798,39.439-95.277c14.898-14.898,32.704-25.828,52.152-32.349c4.128,9.171,9.962,17.535,17.308,24.708h-6.245c-2.211,0-4,1.789-4,4c0,2.211,1.789,4,4,4h17.023h93.037h16.996c2.211,0,4-1.789,4-4c0-2.211-1.789-4-4-4h-6.216c9.191-8.974,16.013-19.816,20.088-31.759h18.212c1.44,0,2.761-0.76,3.48-2c13.08-22.4,30.439-38.159,51.679-46.919c-5.72,20.679-10.12,39.479-9.679,57.198c0.04,1.561,1.08,3,2.519,3.601c33.352,14.7,59.354,41.823,72.202,74.972H439.93c-2.211,0-4,1.789-4,4c0,2.211,1.789,4,4,4h18.349c0.056,0.002,0.106,0.026,0.163,0.026h34.52c3.56,0,6.8,1.601,8.92,4.44C503.922,257.086,504.562,260.606,503.522,263.926z"></path><path fill="#333" d="M398.509,207.855c-9.543,0-17.304,7.762-17.304,17.304c0,9.543,7.762,17.304,17.304,17.304c9.543,0,17.304-7.762,17.304-17.304C415.814,215.617,408.052,207.855,398.509,207.855z M398.509,234.464c-5.129,0-9.304-4.176-9.304-9.304c0-5.129,4.176-9.304,9.304-9.304c5.129,0,9.305,4.176,9.305,9.304C407.814,230.288,403.638,234.464,398.509,234.464z"></path></g></svg>