<svg xmlns="http://www.w3.org/2000/svg" xmlns:xlink="http://www.w3.org/1999/xlink" width="64" height="64" viewBox="0 0 64 64" id="quote"><defs><path id="a" d="M.06 64V.04H64V64z"></path></defs><g fill="none" fill-rule="evenodd"><mask id="b" fill="#fff"><use xlink:href="#a"></use></mask><path fill="#DEDECA" d="M64 32c0 17.673-14.327 32-32 32C14.327 64 0 49.673 0 32 0 14.327 14.327 0 32 0c17.673 0 32 14.327 32 32" mask="url(#b)"></path><path fill="#B3B2A4" d="M19.741 47.047c-.506 0-1.004-.23-1.335-.67a1.752 1.752 0 0 1 .299-2.424c5.261-4.179 6.701-8.272 6.956-11.081-.746.419-1.586.683-2.496.683-2.838 0-5.136-2.352-5.136-5.254 0-2.902 2.301-5.254 5.136-5.254.641 0 1.23.165 1.792.388l-.018-.041s.248.089.593.278l.052.021.028.02c.237.134.509.313.812.567.129.11.238.237.356.357 1.266 1.24 2.657 3.606 2.287 8.114-.216 3.524-1.83 8.798-8.291 13.932-.31.244-.672.364-1.035.364m16.902-.003a1.669 1.669 0 0 1-1.335-.67 1.752 1.752 0 0 1 .3-2.424c5.261-4.18 6.701-8.273 6.955-11.082a4.98 4.98 0 0 1-2.493.687c-2.838 0-5.135-2.352-5.135-5.254 0-2.902 2.297-5.254 5.135-5.254.642 0 1.231.165 1.792.388l-.021-.041s.248.089.593.278l.052.021.028.02c.237.134.509.313.813.567.129.11.237.237.355.357 1.266 1.24 2.653 3.606 2.288 8.111-.217 3.523-1.831 8.798-8.291 13.932a1.676 1.676 0 0 1-1.036.364"></path><path fill="#4C5665" d="M23.165 31.555c-2.838 0-5.136-2.352-5.136-5.254 0-2.902 2.301-5.254 5.136-5.254.641 0 1.23.165 1.792.388l-.018-.041s.248.089.593.278l.052.021.028.02c.237.134.509.313.812.567.129.11.238.237.356.357 1.266 1.24 2.657 3.606 2.287 8.114-.216 3.524-1.83 8.798-8.291 13.932a1.664 1.664 0 0 1-2.37-.306 1.752 1.752 0 0 1 .299-2.424c5.261-4.179 6.701-8.272 6.956-11.081-.746.419-1.586.683-2.496.683zm22.805-.807c-.217 3.523-1.831 8.798-8.291 13.932a1.676 1.676 0 0 1-1.036.364 1.669 1.669 0 0 1-1.335-.67 1.752 1.752 0 0 1 .3-2.424c5.261-4.18 6.701-8.273 6.955-11.082a4.98 4.98 0 0 1-2.493.687c-2.838 0-5.135-2.352-5.135-5.254 0-2.902 2.297-5.254 5.135-5.254.642 0 1.231.165 1.792.388l-.021-.041s.248.089.593.278l.052.021.028.02c.237.134.509.313.813.567.129.11.237.237.355.357 1.266 1.24 2.653 3.606 2.288 8.111z"></path></g></svg>