<svg xmlns="http://www.w3.org/2000/svg" width="267" height="267" fill-rule="evenodd" stroke-linejoin="round" stroke-miterlimit="2" clip-rule="evenodd" id="self-care"><path fill="url(#_Linear1)" d="M89.155,237.199L14.998,215.006C24.774,187.824 18.134,170.278 13.661,151.861C8.074,128.853 20.798,85.782 25.515,74.652C31.575,71.81 45.276,90.96 38.452,113.605C38.452,113.605 39.291,114.131 40.638,115.213L40.804,114.658C62.313,58.865 76.785,18.116 89.049,22.042C94.557,23.805 93.266,37.062 93.266,37.062L93.342,37.478C97.592,28.437 101.887,23.261 106.72,24.915C114.712,27.651 114.035,39.44 110.269,55.573L110.311,55.433C112.366,51.021 117.657,41.854 123.608,48.852C127.346,53.249 126.655,66.939 124.646,82.045C124.646,82.045 124.352,82.436 124.604,82.032C132.581,69.278 140.535,80.004 138.759,99.708C136.927,120.034 133.505,162.819 122.195,178.722C110.885,194.625 96.583,212.376 89.155,237.199Z"></path><path fill="#e6a775" d="M36.875 116.888C36.875 116.888 57.672 130.179 56.581 160.395 56.498 162.693 58.296 164.626 60.594 164.709 62.892 164.792 64.826 162.994 64.909 160.696 66.19 125.221 41.306 109.83 41.306 109.83 39.359 108.607 36.785 109.196 35.562 111.143 34.339 113.091 34.927 115.665 36.875 116.888zM74.715 103.135C83.772 80.63 90.71 55.081 97.713 39.57 98.66 37.474 97.726 35.004 95.63 34.058 93.534 33.112 91.064 34.045 90.118 36.141 83.08 51.731 76.087 77.404 66.984 100.023 66.126 102.157 67.161 104.586 69.294 105.444 71.427 106.303 73.856 105.268 74.715 103.135z"></path><path fill="url(#_Linear2)" d="M176.835,237.199L250.991,215.006C241.216,187.824 247.856,170.278 252.328,151.861C257.915,128.853 245.192,85.782 240.475,74.652C234.414,71.81 220.714,90.96 227.537,113.605C227.537,113.605 226.698,114.131 225.352,115.213L225.186,114.658C203.676,58.865 189.205,18.116 176.94,22.042C171.432,23.805 172.724,37.062 172.724,37.062L172.647,37.478C168.398,28.437 164.103,23.261 159.27,24.915C151.278,27.651 151.954,39.44 155.721,55.573L155.678,55.433C153.624,51.021 148.333,41.854 142.382,48.852C138.644,53.249 139.335,66.939 141.344,82.045C141.344,82.045 141.638,82.436 141.385,82.032C133.409,69.278 125.454,80.004 127.23,99.708C129.063,120.034 132.485,162.819 143.794,178.722C155.104,194.625 169.406,212.376 176.835,237.199Z"></path><path fill="#e6a775" d="M224.683 109.83C224.683 109.83 199.799 125.221 201.081 160.696 201.164 162.994 203.097 164.792 205.395 164.709 207.693 164.626 209.492 162.693 209.409 160.395 208.317 130.179 229.115 116.888 229.115 116.888 231.062 115.665 231.651 113.091 230.428 111.143 229.205 109.196 226.631 108.607 224.683 109.83zM199.005 100.023C189.902 77.404 182.91 51.731 175.872 36.141 174.925 34.045 172.455 33.112 170.359 34.058 168.263 35.004 167.33 37.474 168.276 39.57 175.279 55.081 182.218 80.63 191.275 103.135 192.133 105.268 194.562 106.303 196.696 105.444 198.829 104.586 199.864 102.157 199.005 100.023z"></path><path fill="url(#_Linear3)" d="M133.333,68.963C148.074,54.577 177.557,54.577 192.298,68.822C207.04,83.068 207.04,111.559 192.298,140.05C183.779,157.691 164.207,175.333 145.196,188.966C138.095,194.02 128.571,194.021 121.469,188.968C102.459,175.333 82.888,157.691 74.368,140.05C59.627,111.559 59.627,83.068 74.368,68.822C89.11,54.577 118.592,54.577 133.333,68.963Z"></path><defs><linearGradient id="_Linear1" x1="0" x2="1" y1="0" y2="0" gradientTransform="rotate(90 49 77.136) scale(216.432)" gradientUnits="userSpaceOnUse"><stop offset="0" stop-color="#fed29d"></stop><stop offset="1" stop-color="#f4bd7a"></stop></linearGradient><linearGradient id="_Linear2" x1="0" x2="1" y1="0" y2="0" gradientTransform="rotate(90 49 77.136) scale(216.432)" gradientUnits="userSpaceOnUse"><stop offset="0" stop-color="#fed29d"></stop><stop offset="1" stop-color="#f4bd7a"></stop></linearGradient><linearGradient id="_Linear3" x1="0" x2="1" y1="0" y2="0" gradientTransform="rotate(60.413 -2.315 109.878) scale(136.1567)" gradientUnits="userSpaceOnUse"><stop offset="0" stop-color="#fe97ac"></stop><stop offset="1" stop-color="#ff6f6f"></stop></linearGradient></defs></svg>