<svg xmlns="http://www.w3.org/2000/svg" data-name="Layer 1" viewBox="0 0 512 512" id="sink"><rect width="59.29" height="32.16" x="299.64" y="187.38" fill="#00efd1"></rect><polygon fill="#00efd1" points="315 348.25 315 400.57 291.66 400.57 291.66 348.25 291.66 347.81 315 347.81 315 348.25"></polygon><polygon fill="#f4b844" points="291.66 348.25 291.66 400.57 278.78 400.57 268.33 400.57 268.33 348.25 268.33 347.81 291.66 347.81 291.66 348.25"></polygon><polygon fill="#fedb41" points="278.78 401.24 278.78 487.51 233.22 487.51 233.22 401.24 233.22 400.57 243 400.57 268.33 400.57 278.78 400.57 278.78 401.24"></polygon><polygon fill="#00efd1" points="268.33 348.25 268.33 400.57 243 400.57 243 348.25 243 347.81 268.33 347.81 268.33 348.25"></polygon><polygon fill="#f4b844" points="243 348.25 243 400.57 233.22 400.57 219.66 400.57 219.66 348.25 219.66 347.81 243 347.81 243 348.25"></polygon><polygon fill="#00efd1" points="219.66 348.25 219.66 400.57 197 400.57 197 348.25 197 347.81 219.66 347.81 219.66 348.25"></polygon><rect width="59.29" height="32.16" x="153.07" y="187.38" fill="#00efd1"></rect><path fill="#fedb41" d="M255.37,227.52a8,8,0,0,1-8-8V69.28a52.785,52.785,0,0,1,105.57,0v34.06a8,8,0,0,1-16,0V69.28a36.785,36.785,0,1,0-73.57,0V219.52A8,8,0,0,1,255.37,227.52Z"></path><path fill="#00acea" d="M358.93,219.54h77.79v77.8a50.475,50.475,0,0,1-50.47,50.47H125.75a50.475,50.475,0,0,1-50.47-50.47v-77.8H358.93Z"></path></svg>