<svg xmlns="http://www.w3.org/2000/svg" enable-background="new 0 0 512 512" viewBox="0 0 512 512" id="stairs"><path fill="#3a98ff" d="M66 244.125c-5.522 0-10 4.477-10 10v160c0 5.522 4.478 10 10 10s10-4.478 10-10v-160C76 248.602 71.522 244.125 66 244.125zM426 44.125c-5.522 0-10 4.478-10 10v110c0 5.523 4.478 10 10 10s10-4.477 10-10v-110C436 48.603 431.522 44.125 426 44.125zM346 74.425c-5.522 0-10 4.478-10 10v129.7c0 5.523 4.478 10 10 10s10-4.477 10-10v-129.7C356 78.902 351.522 74.425 346 74.425zM276 116.855c-5.522 0-10 4.478-10 10v137.27c0 5.522 4.478 10 10 10s10-4.478 10-10v-137.27C286 121.333 281.522 116.855 276 116.855zM206 159.275c-5.523 0-10 4.477-10 10v144.85c0 5.522 4.477 10 10 10s10-4.478 10-10v-144.85C216 163.753 211.523 159.275 206 159.275zM136 201.705c-5.523 0-10 4.478-10 10v152.42c0 5.522 4.477 10 10 10s10-4.478 10-10v-152.42C146 206.183 141.523 201.705 136 201.705z"></path><path fill="#283954" d="M501 454.125h-15v-290c0-5.523-4.478-10-10-10h-90c-5.522 0-10 4.477-10 10v40c-21.427 0-37.338 0-60 0-5.522 0-10 4.477-10 10v40c-18.834 0-33.013 0-60 0-5.523 0-10 4.478-10 10v40h-60c-5.523 0-10 4.478-10 10v40h-60c-5.522 0-10 4.478-10 10v40H36c-5.522 0-10 4.478-10 10v40H11c-5.523 0-10 4.478-10 10s4.477 10 10 10c12.495 0 477.828 0 490 0 5.522 0 10-4.478 10-10S506.522 454.125 501 454.125zM46 424.125c10.423 0 75.096 0 85 0 5.523 0 10-4.478 10-10s-4.477-10-10-10h-15v-30c6.94 0 75.933 0 85 0 5.523 0 10-4.478 10-10s-4.477-10-10-10h-15v-30c11.084 0 75.149 0 85 0 5.522 0 10-4.478 10-10s-4.478-10-10-10h-15v-30c18.064 0 66.844 0 85 0 5.522 0 10-4.478 10-10s-4.478-10-10-10h-15v-30c18.011 0 67.053 0 85 0 5.522 0 10-4.477 10-10s-4.478-10-10-10h-15v-30h70v280H46V424.125zM464.75 37.875h-60c-1.827 0-3.62.501-5.183 1.448L71.956 237.875H44.75c-5.522 0-10 4.477-10 10s4.478 10 10 10h30c1.827 0 3.62-.501 5.183-1.448L407.544 57.875h57.206c5.522 0 10-4.478 10-10S470.272 37.875 464.75 37.875z"></path></svg>