<svg xmlns="http://www.w3.org/2000/svg" viewBox="0 0 64 64" id="very-sad-emotion-face"><path fill="#f3292b" d="M13 29h.03c.82-.02 17.91-.57 25.87-7a11.379 11.379 0 0 0 1.1-.97v.01a9.928 9.928 0 0 0 .48 1.04c1.13 2.16 5.32 6.9 11.49 6.92H53a2 2 0 0 1 1 .27V25a22 22 0 0 0-44 0v4.27a2 2 0 0 1 1-.27Z"></path><path fill="#e2283a" d="M55 28.788V25a23 23 0 0 0-46 0v3.788A2.954 2.954 0 0 0 8 31v6a3 3 0 0 0 3 3h1v2a20.026 20.026 0 0 0 20 20q.381 0 .763-.015C43.368 61.587 52 52.413 52 41.54V40h1a3 3 0 0 0 3-3v-6a2.954 2.954 0 0 0-1-2.212ZM11 25a21 21 0 1 1 42 0v3h-1.027c-5.943-.019-9.744-4.733-10.608-6.386a9.511 9.511 0 0 1-.407-.87 1 1 0 0 0-1.665-.421 10.541 10.541 0 0 1-1.021.9C30.483 27.514 13.18 28 13.006 28H11Zm-1 12v-6a1 1 0 0 1 1-1h1v8h-1a1 1 0 0 1-1-1Zm40 4.54c0 9.812-7.769 18.089-17.317 18.451A18.025 18.025 0 0 1 14 42V29.963h.087c3.975-.2 18.18-1.316 25.423-7.166l.153-.12A15.334 15.334 0 0 0 50 29.838v11.7ZM54 37a1 1 0 0 1-1 1h-1v-8h1a1 1 0 0 1 1 1Z"></path><path fill="#e2283a" d="M27 34h-2a2 2 0 0 1-4 0h-2a4 4 0 0 0 8 0zm14 2a2 2 0 0 1-2-2h-2a4 4 0 0 0 8 0h-2a2 2 0 0 1-2 2zM18.826 30.017l7.879-1.39.347 1.968-7.878 1.39zM36.947 30.594l.348-1.969 7.879 1.39-.347 1.969zM32 43a12.07 12.07 0 0 0-11.217 7.727l1.869.712a10.005 10.005 0 0 1 18.7 0l1.869-.712A12.071 12.071 0 0 0 32 43Z"></path></svg>